<svg width="580" height="108" viewBox="0 0 580 108" fill="none" xmlns="http://www.w3.org/2000/svg">
<path d="M3 0V48" stroke="url(#paint0_linear_1_333)" stroke-width="5"/>
<path d="M39.9344 35L38.2544 29.96H27.0944L25.4144 35H19.4544L29.2544 7H36.0944L45.9344 35H39.9344ZM28.8544 24.8H36.5344L32.6944 13.36L28.8544 24.8ZM317.259 11.4C314.432 11.1867 313.019 12.32 313.019 14.8V15H317.259V19.96H313.019V35H307.859V19.96H304.979V15H307.859V14.8C307.859 11.9733 308.646 9.82667 310.219 8.36C311.792 6.89333 314.139 6.25333 317.259 6.44V11.4ZM335.922 32.52C333.869 34.5467 331.362 35.56 328.402 35.56C325.442 35.56 322.935 34.5467 320.882 32.52C318.855 30.4667 317.842 27.96 317.842 25C317.842 22.04 318.855 19.5467 320.882 17.52C322.935 15.4667 325.442 14.44 328.402 14.44C331.362 14.44 333.869 15.4667 335.922 17.52C337.975 19.5467 339.002 22.04 339.002 25C339.002 27.96 337.975 30.4667 335.922 32.52ZM324.522 28.96C325.562 30 326.855 30.52 328.402 30.52C329.949 30.52 331.242 30 332.282 28.96C333.322 27.92 333.842 26.6 333.842 25C333.842 23.4 333.322 22.08 332.282 21.04C331.242 20 329.949 19.48 328.402 19.48C326.855 19.48 325.562 20 324.522 21.04C323.509 22.08 323.002 23.4 323.002 25C323.002 26.6 323.509 27.92 324.522 28.96ZM347.792 18.44C348.272 17.16 349.059 16.2 350.152 15.56C351.272 14.92 352.512 14.6 353.872 14.6V20.36C352.299 20.1733 350.885 20.4933 349.632 21.32C348.405 22.1467 347.792 23.52 347.792 25.44V35H342.632V15H347.792V18.44ZM379.93 15H385.45L378.17 35C377.13 37.88 375.743 39.96 374.01 41.24C372.303 42.5467 370.17 43.1333 367.61 43V38.2C368.996 38.2267 370.09 37.9333 370.89 37.32C371.716 36.7067 372.37 35.72 372.85 34.36L364.65 15H370.29L375.49 28.44L379.93 15ZM404.164 32.52C402.111 34.5467 399.604 35.56 396.644 35.56C393.684 35.56 391.177 34.5467 389.124 32.52C387.097 30.4667 386.084 27.96 386.084 25C386.084 22.04 387.097 19.5467 389.124 17.52C391.177 15.4667 393.684 14.44 396.644 14.44C399.604 14.44 402.111 15.4667 404.164 17.52C406.217 19.5467 407.244 22.04 407.244 25C407.244 27.96 406.217 30.4667 404.164 32.52ZM392.764 28.96C393.804 30 395.097 30.52 396.644 30.52C398.191 30.52 399.484 30 400.524 28.96C401.564 27.92 402.084 26.6 402.084 25C402.084 23.4 401.564 22.08 400.524 21.04C399.484 20 398.191 19.48 396.644 19.48C395.097 19.48 393.804 20 392.764 21.04C391.751 22.08 391.244 23.4 391.244 25C391.244 26.6 391.751 27.92 392.764 28.96ZM424.074 15H429.234V35H424.074V32.76C422.821 34.6267 420.834 35.56 418.114 35.56C415.927 35.56 414.114 34.8267 412.674 33.36C411.261 31.8933 410.554 29.8667 410.554 27.28V15H415.714V26.64C415.714 27.9733 416.074 29 416.794 29.72C417.514 30.4133 418.474 30.76 419.674 30.76C421.007 30.76 422.074 30.3467 422.874 29.52C423.674 28.6933 424.074 27.4533 424.074 25.8V15ZM439.12 18.44C439.6 17.16 440.387 16.2 441.48 15.56C442.6 14.92 443.84 14.6 445.2 14.6V20.36C443.627 20.1733 442.213 20.4933 440.96 21.32C439.733 22.1467 439.12 23.52 439.12 25.44V35H433.96V15H439.12V18.44ZM469.338 14.44C471.524 14.44 473.324 15.1733 474.738 16.64C476.178 18.1067 476.898 20.1333 476.898 22.72V35H471.738V23.36C471.738 22.0267 471.378 21.0133 470.658 20.32C469.938 19.6 468.978 19.24 467.778 19.24C466.444 19.24 465.378 19.6533 464.578 20.48C463.778 21.3067 463.378 22.5467 463.378 24.2V35H458.218V15H463.378V17.24C464.631 15.3733 466.618 14.44 469.338 14.44ZM485.664 27.12C486.357 29.6267 488.237 30.88 491.304 30.88C493.277 30.88 494.77 30.2133 495.784 28.88L499.944 31.28C497.97 34.1333 495.064 35.56 491.224 35.56C487.917 35.56 485.264 34.56 483.264 32.56C481.264 30.56 480.264 28.04 480.264 25C480.264 21.9867 481.25 19.48 483.224 17.48C485.197 15.4533 487.73 14.44 490.824 14.44C493.757 14.44 496.17 15.4533 498.064 17.48C499.984 19.5067 500.944 22.0133 500.944 25C500.944 25.6667 500.877 26.3733 500.744 27.12H485.664ZM485.584 23.12H495.784C495.49 21.76 494.877 20.7467 493.944 20.08C493.037 19.4133 491.997 19.08 490.824 19.08C489.437 19.08 488.29 19.44 487.384 20.16C486.477 20.8533 485.877 21.84 485.584 23.12ZM508.75 27.12C509.443 29.6267 511.323 30.88 514.39 30.88C516.363 30.88 517.856 30.2133 518.87 28.88L523.03 31.28C521.056 34.1333 518.15 35.56 514.31 35.56C511.003 35.56 508.35 34.56 506.35 32.56C504.35 30.56 503.35 28.04 503.35 25C503.35 21.9867 504.336 19.48 506.31 17.48C508.283 15.4533 510.816 14.44 513.91 14.44C516.843 14.44 519.256 15.4533 521.15 17.48C523.07 19.5067 524.03 22.0133 524.03 25C524.03 25.6667 523.963 26.3733 523.83 27.12H508.75ZM508.67 23.12H518.87C518.576 21.76 517.963 20.7467 517.03 20.08C516.123 19.4133 515.083 19.08 513.91 19.08C512.523 19.08 511.376 19.44 510.47 20.16C509.563 20.8533 508.963 21.84 508.67 23.12ZM542.636 7H547.796V35H542.636V32.64C541.116 34.5867 538.956 35.56 536.156 35.56C533.462 35.56 531.156 34.5467 529.236 32.52C527.342 30.4667 526.396 27.96 526.396 25C526.396 22.04 527.342 19.5467 529.236 17.52C531.156 15.4667 533.462 14.44 536.156 14.44C538.956 14.44 541.116 15.4133 542.636 17.36V7ZM533.116 29.08C534.182 30.12 535.516 30.64 537.116 30.64C538.716 30.64 540.036 30.12 541.076 29.08C542.116 28.0133 542.636 26.6533 542.636 25C542.636 23.3467 542.116 22 541.076 20.96C540.036 19.8933 538.716 19.36 537.116 19.36C535.516 19.36 534.182 19.8933 533.116 20.96C532.076 22 531.556 23.3467 531.556 25C531.556 26.6533 532.076 28.0133 533.116 29.08ZM557.118 20.68C557.118 21.2133 557.465 21.6533 558.158 22C558.878 22.32 559.745 22.6133 560.758 22.88C561.772 23.12 562.785 23.44 563.798 23.84C564.812 24.2133 565.665 24.8533 566.358 25.76C567.078 26.6667 567.438 27.8 567.438 29.16C567.438 31.2133 566.665 32.8 565.118 33.92C563.598 35.0133 561.692 35.56 559.398 35.56C555.292 35.56 552.492 33.9733 550.998 30.8L555.478 28.28C556.065 30.0133 557.372 30.88 559.398 30.88C561.238 30.88 562.158 30.3067 562.158 29.16C562.158 28.6267 561.798 28.2 561.078 27.88C560.385 27.5333 559.532 27.2267 558.518 26.96C557.505 26.6933 556.492 26.36 555.478 25.96C554.465 25.56 553.598 24.9333 552.878 24.08C552.185 23.2 551.838 22.1067 551.838 20.8C551.838 18.8267 552.558 17.28 553.998 16.16C555.465 15.0133 557.278 14.44 559.438 14.44C561.065 14.44 562.545 14.8133 563.878 15.56C565.212 16.28 566.265 17.32 567.038 18.68L562.638 21.08C561.998 19.72 560.932 19.04 559.438 19.04C558.772 19.04 558.212 19.1867 557.758 19.48C557.332 19.7733 557.118 20.1733 557.118 20.68ZM575.923 34.52C575.256 35.1867 574.456 35.52 573.523 35.52C572.589 35.52 571.789 35.1867 571.123 34.52C570.456 33.8533 570.123 33.0533 570.123 32.12C570.123 31.1867 570.456 30.3867 571.123 29.72C571.789 29.0533 572.589 28.72 573.523 28.72C574.456 28.72 575.256 29.0533 575.923 29.72C576.589 30.3867 576.923 31.1867 576.923 32.12C576.923 33.0533 576.589 33.8533 575.923 34.52Z" fill="#141414"/>
<path d="M70.0531 14.44C72.7465 14.44 75.0398 15.4667 76.9331 17.52C78.8531 19.5467 79.8131 22.04 79.8131 25C79.8131 27.96 78.8531 30.4667 76.9331 32.52C75.0398 34.5467 72.7465 35.56 70.0531 35.56C67.2531 35.56 65.0931 34.5867 63.5731 32.64V43H58.4131V15H63.5731V17.36C65.0931 15.4133 67.2531 14.44 70.0531 14.44ZM65.1331 29.08C66.1731 30.12 67.4931 30.64 69.0931 30.64C70.6931 30.64 72.0131 30.12 73.0531 29.08C74.1198 28.0133 74.6531 26.6533 74.6531 25C74.6531 23.3467 74.1198 22 73.0531 20.96C72.0131 19.8933 70.6931 19.36 69.0931 19.36C67.4931 19.36 66.1731 19.8933 65.1331 20.96C64.0931 22 63.5731 23.3467 63.5731 25C63.5731 26.6533 64.0931 28.0133 65.1331 29.08ZM88.6122 18.44C89.0922 17.16 89.8789 16.2 90.9722 15.56C92.0922 14.92 93.3322 14.6 94.6922 14.6V20.36C93.1189 20.1733 91.7055 20.4933 90.4522 21.32C89.2255 22.1467 88.6122 23.52 88.6122 25.44V35H83.4522V15H88.6122V18.44ZM100.27 12.6C99.4167 12.6 98.67 12.2933 98.03 11.68C97.4167 11.04 97.11 10.2933 97.11 9.44C97.11 8.58667 97.4167 7.84 98.03 7.2C98.67 6.56 99.4167 6.24 100.27 6.24C101.15 6.24 101.897 6.56 102.51 7.2C103.15 7.84 103.47 8.58667 103.47 9.44C103.47 10.2933 103.15 11.04 102.51 11.68C101.897 12.2933 101.15 12.6 100.27 12.6ZM97.71 35V15H102.87V35H97.71ZM117.113 35.56C114.099 35.56 111.579 34.5467 109.553 32.52C107.553 30.4933 106.553 27.9867 106.553 25C106.553 22.0133 107.553 19.5067 109.553 17.48C111.579 15.4533 114.099 14.44 117.113 14.44C119.059 14.44 120.833 14.9067 122.433 15.84C124.033 16.7733 125.246 18.0267 126.073 19.6L121.633 22.2C121.233 21.3733 120.619 20.72 119.793 20.24C118.993 19.76 118.086 19.52 117.073 19.52C115.526 19.52 114.246 20.04 113.233 21.08C112.219 22.0933 111.713 23.4 111.713 25C111.713 26.5733 112.219 27.88 113.233 28.92C114.246 29.9333 115.526 30.44 117.073 30.44C118.113 30.44 119.033 30.2133 119.833 29.76C120.659 29.28 121.273 28.6267 121.673 27.8L126.153 30.36C125.273 31.9333 124.033 33.2 122.433 34.16C120.833 35.0933 119.059 35.56 117.113 35.56ZM132.929 27.12C133.623 29.6267 135.503 30.88 138.569 30.88C140.543 30.88 142.036 30.2133 143.049 28.88L147.209 31.28C145.236 34.1333 142.329 35.56 138.489 35.56C135.183 35.56 132.529 34.56 130.529 32.56C128.529 30.56 127.529 28.04 127.529 25C127.529 21.9867 128.516 19.48 130.489 17.48C132.463 15.4533 134.996 14.44 138.089 14.44C141.023 14.44 143.436 15.4533 145.329 17.48C147.249 19.5067 148.209 22.0133 148.209 25C148.209 25.6667 148.143 26.3733 148.009 27.12H132.929ZM132.849 23.12H143.049C142.756 21.76 142.143 20.7467 141.209 20.08C140.303 19.4133 139.263 19.08 138.089 19.08C136.703 19.08 135.556 19.44 134.649 20.16C133.743 20.8533 133.143 21.84 132.849 23.12ZM173.452 14.44C176.145 14.44 178.438 15.4667 180.332 17.52C182.252 19.5467 183.212 22.04 183.212 25C183.212 27.96 182.252 30.4667 180.332 32.52C178.438 34.5467 176.145 35.56 173.452 35.56C170.652 35.56 168.492 34.5867 166.972 32.64V43H161.812V15H166.972V17.36C168.492 15.4133 170.652 14.44 173.452 14.44ZM168.532 29.08C169.572 30.12 170.892 30.64 172.492 30.64C174.092 30.64 175.412 30.12 176.452 29.08C177.518 28.0133 178.052 26.6533 178.052 25C178.052 23.3467 177.518 22 176.452 20.96C175.412 19.8933 174.092 19.36 172.492 19.36C170.892 19.36 169.572 19.8933 168.532 20.96C167.492 22 166.972 23.3467 166.972 25C166.972 26.6533 167.492 28.0133 168.532 29.08ZM191.211 27.12C191.904 29.6267 193.784 30.88 196.851 30.88C198.824 30.88 200.317 30.2133 201.331 28.88L205.491 31.28C203.517 34.1333 200.611 35.56 196.771 35.56C193.464 35.56 190.811 34.56 188.811 32.56C186.811 30.56 185.811 28.04 185.811 25C185.811 21.9867 186.797 19.48 188.771 17.48C190.744 15.4533 193.277 14.44 196.371 14.44C199.304 14.44 201.717 15.4533 203.611 17.48C205.531 19.5067 206.491 22.0133 206.491 25C206.491 25.6667 206.424 26.3733 206.291 27.12H191.211ZM191.131 23.12H201.331C201.037 21.76 200.424 20.7467 199.491 20.08C198.584 19.4133 197.544 19.08 196.371 19.08C194.984 19.08 193.837 19.44 192.931 20.16C192.024 20.8533 191.424 21.84 191.131 23.12ZM215.253 18.44C215.733 17.16 216.519 16.2 217.613 15.56C218.733 14.92 219.973 14.6 221.333 14.6V20.36C219.759 20.1733 218.346 20.4933 217.093 21.32C215.866 22.1467 215.253 23.52 215.253 25.44V35H210.093V15H215.253V18.44ZM235.111 11.4C232.284 11.1867 230.871 12.32 230.871 14.8V15H235.111V19.96H230.871V35H225.711V19.96H222.831V15H225.711V14.8C225.711 11.9733 226.497 9.82667 228.071 8.36C229.644 6.89333 231.991 6.25333 235.111 6.44V11.4ZM241.093 27.12C241.787 29.6267 243.667 30.88 246.733 30.88C248.707 30.88 250.2 30.2133 251.213 28.88L255.373 31.28C253.4 34.1333 250.493 35.56 246.653 35.56C243.347 35.56 240.693 34.56 238.693 32.56C236.693 30.56 235.693 28.04 235.693 25C235.693 21.9867 236.68 19.48 238.653 17.48C240.627 15.4533 243.16 14.44 246.253 14.44C249.187 14.44 251.6 15.4533 253.493 17.48C255.413 19.5067 256.373 22.0133 256.373 25C256.373 25.6667 256.307 26.3733 256.173 27.12H241.093ZM241.013 23.12H251.213C250.92 21.76 250.307 20.7467 249.373 20.08C248.467 19.4133 247.427 19.08 246.253 19.08C244.867 19.08 243.72 19.44 242.813 20.16C241.907 20.8533 241.307 21.84 241.013 23.12ZM269.339 35.56C266.326 35.56 263.806 34.5467 261.779 32.52C259.779 30.4933 258.779 27.9867 258.779 25C258.779 22.0133 259.779 19.5067 261.779 17.48C263.806 15.4533 266.326 14.44 269.339 14.44C271.286 14.44 273.059 14.9067 274.659 15.84C276.259 16.7733 277.473 18.0267 278.299 19.6L273.859 22.2C273.459 21.3733 272.846 20.72 272.019 20.24C271.219 19.76 270.313 19.52 269.299 19.52C267.753 19.52 266.473 20.04 265.459 21.08C264.446 22.0933 263.939 23.4 263.939 25C263.939 26.5733 264.446 27.88 265.459 28.92C266.473 29.9333 267.753 30.44 269.299 30.44C270.339 30.44 271.259 30.2133 272.059 29.76C272.886 29.28 273.499 28.6267 273.899 27.8L278.379 30.36C277.499 31.9333 276.259 33.2 274.659 34.16C273.059 35.0933 271.286 35.56 269.339 35.56ZM292.548 19.96H288.028V28.28C288.028 28.9733 288.202 29.48 288.548 29.8C288.895 30.12 289.402 30.3067 290.068 30.36C290.735 30.3867 291.562 30.3733 292.548 30.32V35C289.002 35.4 286.495 35.0667 285.028 34C283.588 32.9333 282.868 31.0267 282.868 28.28V19.96H279.388V15H282.868V10.96L288.028 9.4V15H292.548V19.96Z" fill="#005AE2"/>
<path d="M34.0996 62.208H29.1396V65.84H33.8916V67.248H29.1396V72H27.6516V60.8H34.0996V62.208ZM37.1496 65.344C37.6082 64.352 38.4402 63.856 39.6456 63.856V65.312C38.9629 65.28 38.3762 65.4613 37.8856 65.856C37.3949 66.2507 37.1496 66.8853 37.1496 67.76V72H35.7576V64H37.1496V65.344ZM47.3221 70.992C46.5007 71.8027 45.5034 72.208 44.3301 72.208C43.1567 72.208 42.1594 71.8027 41.3381 70.992C40.5274 70.1813 40.1221 69.184 40.1221 68C40.1221 66.816 40.5274 65.8187 41.3381 65.008C42.1594 64.1973 43.1567 63.792 44.3301 63.792C45.5034 63.792 46.5007 64.1973 47.3221 65.008C48.1434 65.8187 48.5541 66.816 48.5541 68C48.5541 69.184 48.1434 70.1813 47.3221 70.992ZM44.3301 70.848C45.1301 70.848 45.8021 70.576 46.3461 70.032C46.8901 69.488 47.1621 68.8107 47.1621 68C47.1621 67.1893 46.8901 66.512 46.3461 65.968C45.8021 65.424 45.1301 65.152 44.3301 65.152C43.5407 65.152 42.8741 65.424 42.3301 65.968C41.7861 66.512 41.5141 67.1893 41.5141 68C41.5141 68.8107 41.7861 69.488 42.3301 70.032C42.8741 70.576 43.5407 70.848 44.3301 70.848ZM58.8351 63.792C59.7311 63.792 60.4564 64.0853 61.0111 64.672C61.5657 65.248 61.8431 66.032 61.8431 67.024V72H60.4511V67.072C60.4511 66.4533 60.2911 65.9733 59.9711 65.632C59.6511 65.2907 59.2244 65.12 58.6911 65.12C58.0937 65.12 57.6137 65.3227 57.2511 65.728C56.8991 66.1227 56.7231 66.7307 56.7231 67.552V72H55.3311V67.072C55.3311 66.4533 55.1764 65.9733 54.8671 65.632C54.5684 65.2907 54.1577 65.12 53.6351 65.12C53.0484 65.12 52.5577 65.3227 52.1631 65.728C51.7791 66.1333 51.5871 66.7413 51.5871 67.552V72H50.1951V64H51.5871V65.072C52.1311 64.2187 52.9257 63.792 53.9711 63.792C55.0484 63.792 55.8324 64.2453 56.3231 65.152C56.8777 64.2453 57.7151 63.792 58.8351 63.792ZM71.5332 72.208C70.3279 72.208 69.3252 71.808 68.5252 71.008C67.7252 70.1973 67.3252 69.1947 67.3252 68C67.3252 66.8053 67.7252 65.808 68.5252 65.008C69.3252 64.1973 70.3279 63.792 71.5332 63.792C72.3225 63.792 73.0319 63.984 73.6612 64.368C74.2905 64.7413 74.7599 65.248 75.0692 65.888L73.9012 66.56C73.6985 66.1333 73.3839 65.792 72.9572 65.536C72.5412 65.28 72.0665 65.152 71.5332 65.152C70.7332 65.152 70.0612 65.424 69.5172 65.968C68.9839 66.512 68.7172 67.1893 68.7172 68C68.7172 68.8 68.9839 69.472 69.5172 70.016C70.0612 70.56 70.7332 70.832 71.5332 70.832C72.0665 70.832 72.5465 70.7093 72.9732 70.464C73.3999 70.208 73.7252 69.8667 73.9492 69.44L75.1332 70.128C74.7919 70.7573 74.3012 71.264 73.6612 71.648C73.0212 72.0213 72.3119 72.208 71.5332 72.208ZM83.0222 64H84.4142V72H83.0222V70.624C82.3289 71.68 81.3209 72.208 79.9982 72.208C78.8782 72.208 77.9235 71.8027 77.1342 70.992C76.3449 70.1707 75.9502 69.1733 75.9502 68C75.9502 66.8267 76.3449 65.8347 77.1342 65.024C77.9235 64.2027 78.8782 63.792 79.9982 63.792C81.3209 63.792 82.3289 64.32 83.0222 65.376V64ZM80.1742 70.864C80.9849 70.864 81.6622 70.592 82.2062 70.048C82.7502 69.4933 83.0222 68.8107 83.0222 68C83.0222 67.1893 82.7502 66.512 82.2062 65.968C81.6622 65.4133 80.9849 65.136 80.1742 65.136C79.3742 65.136 78.7022 65.4133 78.1582 65.968C77.6142 66.512 77.3422 67.1893 77.3422 68C77.3422 68.8107 77.6142 69.4933 78.1582 70.048C78.7022 70.592 79.3742 70.864 80.1742 70.864ZM90.8752 65.344H88.7472V69.68C88.7472 70.0747 88.8219 70.3573 88.9712 70.528C89.1312 70.688 89.3712 70.7733 89.6912 70.784C90.0112 70.784 90.4059 70.7733 90.8752 70.752V72C89.6592 72.16 88.7685 72.064 88.2032 71.712C87.6379 71.3493 87.3552 70.672 87.3552 69.68V65.344H85.7712V64H87.3552V62.176L88.7472 61.76V64H90.8752V65.344ZM93.0929 68.64C93.2316 69.3547 93.5569 69.9093 94.0689 70.304C94.5916 70.6987 95.2316 70.896 95.9889 70.896C97.0449 70.896 97.8129 70.5067 98.2929 69.728L99.4769 70.4C98.6983 71.6053 97.5249 72.208 95.9569 72.208C94.6876 72.208 93.6529 71.8133 92.8529 71.024C92.0636 70.224 91.6689 69.216 91.6689 68C91.6689 66.7947 92.0583 65.792 92.8369 64.992C93.6156 64.192 94.6236 63.792 95.8609 63.792C97.0343 63.792 97.9889 64.208 98.7249 65.04C99.4716 65.8613 99.8449 66.8533 99.8449 68.016C99.8449 68.2187 99.8289 68.4267 99.7969 68.64H93.0929ZM95.8609 65.104C95.1143 65.104 94.4956 65.3173 94.0049 65.744C93.5143 66.16 93.2103 66.72 93.0929 67.424H98.4369C98.3196 66.6667 98.0209 66.0907 97.5409 65.696C97.0609 65.3013 96.5009 65.104 95.8609 65.104ZM102.837 65.344C103.296 64.352 104.128 63.856 105.333 63.856V65.312C104.65 65.28 104.064 65.4613 103.573 65.856C103.082 66.2507 102.837 66.8853 102.837 67.76V72H101.445V64H102.837V65.344ZM107.399 62.544C107.132 62.544 106.908 62.4533 106.727 62.272C106.546 62.0907 106.455 61.872 106.455 61.616C106.455 61.36 106.546 61.1413 106.727 60.96C106.908 60.768 107.132 60.672 107.399 60.672C107.655 60.672 107.874 60.768 108.055 60.96C108.236 61.1413 108.327 61.36 108.327 61.616C108.327 61.872 108.236 62.0907 108.055 62.272C107.874 62.4533 107.655 62.544 107.399 62.544ZM106.695 72V64H108.087V72H106.695ZM114.195 63.792C115.133 63.792 115.885 64.0907 116.451 64.688C117.016 65.2747 117.299 66.0747 117.299 67.088V72H115.907V67.168C115.907 66.5173 115.731 66.016 115.379 65.664C115.027 65.3013 114.541 65.12 113.923 65.12C113.229 65.12 112.669 65.3387 112.243 65.776C111.816 66.2027 111.603 66.864 111.603 67.76V72H110.211V64H111.603V65.152C112.168 64.2453 113.032 63.792 114.195 63.792ZM125.882 64H127.258V71.664C127.258 72.848 126.858 73.7653 126.058 74.416C125.258 75.0773 124.298 75.408 123.178 75.408C122.282 75.408 121.509 75.2373 120.858 74.896C120.207 74.5653 119.717 74.0853 119.386 73.456L120.602 72.768C121.039 73.664 121.909 74.112 123.21 74.112C124.042 74.112 124.693 73.8933 125.162 73.456C125.642 73.0187 125.882 72.4213 125.882 71.664V70.528C125.178 71.5947 124.175 72.128 122.874 72.128C121.733 72.128 120.767 71.7227 119.978 70.912C119.189 70.1013 118.794 69.1147 118.794 67.952C118.794 66.7893 119.189 65.808 119.978 65.008C120.767 64.1973 121.733 63.792 122.874 63.792C124.186 63.792 125.189 64.32 125.882 65.376V64ZM121.002 69.984C121.546 70.528 122.223 70.8 123.034 70.8C123.845 70.8 124.522 70.528 125.066 69.984C125.61 69.44 125.882 68.7627 125.882 67.952C125.882 67.152 125.61 66.48 125.066 65.936C124.522 65.392 123.845 65.12 123.034 65.12C122.223 65.12 121.546 65.392 121.002 65.936C120.458 66.48 120.186 67.152 120.186 67.952C120.186 68.7627 120.458 69.44 121.002 69.984ZM137.479 61.936C136.071 61.8187 135.367 62.4267 135.367 63.76V64H137.479V65.344H135.367V72H133.975V65.344H132.695V64H133.975V63.76C133.975 62.6827 134.274 61.8667 134.871 61.312C135.479 60.7573 136.348 60.5173 137.479 60.592V61.936ZM144.853 70.992C144.032 71.8027 143.035 72.208 141.861 72.208C140.688 72.208 139.691 71.8027 138.869 70.992C138.059 70.1813 137.653 69.184 137.653 68C137.653 66.816 138.059 65.8187 138.869 65.008C139.691 64.1973 140.688 63.792 141.861 63.792C143.035 63.792 144.032 64.1973 144.853 65.008C145.675 65.8187 146.085 66.816 146.085 68C146.085 69.184 145.675 70.1813 144.853 70.992ZM141.861 70.848C142.661 70.848 143.333 70.576 143.877 70.032C144.421 69.488 144.693 68.8107 144.693 68C144.693 67.1893 144.421 66.512 143.877 65.968C143.333 65.424 142.661 65.152 141.861 65.152C141.072 65.152 140.405 65.424 139.861 65.968C139.317 66.512 139.045 67.1893 139.045 68C139.045 68.8107 139.317 69.488 139.861 70.032C140.405 70.576 141.072 70.848 141.861 70.848ZM149.118 65.344C149.577 64.352 150.409 63.856 151.614 63.856V65.312C150.932 65.28 150.345 65.4613 149.854 65.856C149.364 66.2507 149.118 66.8853 149.118 67.76V72H147.726V64H149.118V65.344ZM162.56 64H164.048L160.784 72.496C160.443 73.4027 159.963 74.0907 159.344 74.56C158.736 75.04 158.032 75.2533 157.232 75.2V73.904C158.214 73.9787 158.934 73.4347 159.392 72.272L159.536 71.968L156.048 64H157.536L160.256 70.272L162.56 64ZM171.65 70.992C170.829 71.8027 169.832 72.208 168.658 72.208C167.485 72.208 166.488 71.8027 165.666 70.992C164.856 70.1813 164.45 69.184 164.45 68C164.45 66.816 164.856 65.8187 165.666 65.008C166.488 64.1973 167.485 63.792 168.658 63.792C169.832 63.792 170.829 64.1973 171.65 65.008C172.472 65.8187 172.882 66.816 172.882 68C172.882 69.184 172.472 70.1813 171.65 70.992ZM168.658 70.848C169.458 70.848 170.13 70.576 170.674 70.032C171.218 69.488 171.49 68.8107 171.49 68C171.49 67.1893 171.218 66.512 170.674 65.968C170.13 65.424 169.458 65.152 168.658 65.152C167.869 65.152 167.202 65.424 166.658 65.968C166.114 66.512 165.842 67.1893 165.842 68C165.842 68.8107 166.114 69.488 166.658 70.032C167.202 70.576 167.869 70.848 168.658 70.848ZM180.043 64H181.435V72H180.043V70.848C179.478 71.7547 178.614 72.208 177.451 72.208C176.513 72.208 175.761 71.9147 175.195 71.328C174.63 70.7307 174.347 69.9253 174.347 68.912V64H175.739V68.832C175.739 69.4827 175.915 69.9893 176.267 70.352C176.619 70.704 177.105 70.88 177.723 70.88C178.417 70.88 178.977 70.6667 179.403 70.24C179.83 69.8027 180.043 69.136 180.043 68.24V64ZM184.946 65.344C185.405 64.352 186.237 63.856 187.442 63.856V65.312C186.76 65.28 186.173 65.4613 185.682 65.856C185.192 66.2507 184.946 66.8853 184.946 67.76V72H183.554V64H184.946V65.344ZM197.22 63.792C198.34 63.792 199.295 64.2027 200.084 65.024C200.874 65.8347 201.268 66.8267 201.268 68C201.268 69.1733 200.874 70.1707 200.084 70.992C199.295 71.8027 198.34 72.208 197.22 72.208C195.898 72.208 194.89 71.68 194.196 70.624V75.2H192.804V64H194.196V65.376C194.89 64.32 195.898 63.792 197.22 63.792ZM197.044 70.864C197.844 70.864 198.516 70.592 199.06 70.048C199.604 69.4933 199.876 68.8107 199.876 68C199.876 67.1893 199.604 66.512 199.06 65.968C198.516 65.4133 197.844 65.136 197.044 65.136C196.234 65.136 195.556 65.4133 195.012 65.968C194.468 66.512 194.196 67.1893 194.196 68C194.196 68.8107 194.468 69.4933 195.012 70.048C195.556 70.592 196.234 70.864 197.044 70.864ZM203.905 68.64C204.044 69.3547 204.369 69.9093 204.881 70.304C205.404 70.6987 206.044 70.896 206.801 70.896C207.857 70.896 208.625 70.5067 209.105 69.728L210.289 70.4C209.511 71.6053 208.337 72.208 206.769 72.208C205.5 72.208 204.465 71.8133 203.665 71.024C202.876 70.224 202.481 69.216 202.481 68C202.481 66.7947 202.871 65.792 203.649 64.992C204.428 64.192 205.436 63.792 206.673 63.792C207.847 63.792 208.801 64.208 209.537 65.04C210.284 65.8613 210.657 66.8533 210.657 68.016C210.657 68.2187 210.641 68.4267 210.609 68.64H203.905ZM206.673 65.104C205.927 65.104 205.308 65.3173 204.817 65.744C204.327 66.16 204.023 66.72 203.905 67.424H209.249C209.132 66.6667 208.833 66.0907 208.353 65.696C207.873 65.3013 207.313 65.104 206.673 65.104ZM213.65 65.344C214.108 64.352 214.94 63.856 216.146 63.856V65.312C215.463 65.28 214.876 65.4613 214.386 65.856C213.895 66.2507 213.65 66.8853 213.65 67.76V72H212.258V64H213.65V65.344ZM218.411 66.16C218.411 66.4693 218.565 66.72 218.875 66.912C219.184 67.0933 219.557 67.2427 219.995 67.36C220.432 67.4667 220.869 67.5947 221.307 67.744C221.744 67.8827 222.117 68.128 222.427 68.48C222.736 68.8213 222.891 69.264 222.891 69.808C222.891 70.5333 222.608 71.1147 222.043 71.552C221.488 71.9893 220.773 72.208 219.899 72.208C219.12 72.208 218.453 72.0373 217.899 71.696C217.344 71.3547 216.949 70.9013 216.715 70.336L217.915 69.648C218.043 70.032 218.283 70.336 218.635 70.56C218.987 70.784 219.408 70.896 219.899 70.896C220.357 70.896 220.736 70.8107 221.035 70.64C221.333 70.4587 221.483 70.1813 221.483 69.808C221.483 69.4987 221.328 69.2533 221.019 69.072C220.709 68.88 220.336 68.7307 219.899 68.624C219.461 68.5067 219.024 68.3733 218.587 68.224C218.149 68.0747 217.776 67.8293 217.467 67.488C217.157 67.1467 217.003 66.7093 217.003 66.176C217.003 65.4827 217.269 64.912 217.803 64.464C218.347 64.016 219.024 63.792 219.835 63.792C220.485 63.792 221.061 63.9413 221.563 64.24C222.075 64.528 222.459 64.9333 222.715 65.456L221.547 66.112C221.259 65.4293 220.688 65.088 219.835 65.088C219.44 65.088 219.104 65.184 218.827 65.376C218.549 65.5573 218.411 65.8187 218.411 66.16ZM231.072 70.992C230.251 71.8027 229.253 72.208 228.08 72.208C226.907 72.208 225.909 71.8027 225.088 70.992C224.277 70.1813 223.872 69.184 223.872 68C223.872 66.816 224.277 65.8187 225.088 65.008C225.909 64.1973 226.907 63.792 228.08 63.792C229.253 63.792 230.251 64.1973 231.072 65.008C231.893 65.8187 232.304 66.816 232.304 68C232.304 69.184 231.893 70.1813 231.072 70.992ZM228.08 70.848C228.88 70.848 229.552 70.576 230.096 70.032C230.64 69.488 230.912 68.8107 230.912 68C230.912 67.1893 230.64 66.512 230.096 65.968C229.552 65.424 228.88 65.152 228.08 65.152C227.291 65.152 226.624 65.424 226.08 65.968C225.536 66.512 225.264 67.1893 225.264 68C225.264 68.8107 225.536 69.488 226.08 70.032C226.624 70.576 227.291 70.848 228.08 70.848ZM237.929 63.792C238.868 63.792 239.62 64.0907 240.185 64.688C240.75 65.2747 241.033 66.0747 241.033 67.088V72H239.641V67.168C239.641 66.5173 239.465 66.016 239.113 65.664C238.761 65.3013 238.276 65.12 237.657 65.12C236.964 65.12 236.404 65.3387 235.977 65.776C235.55 66.2027 235.337 66.864 235.337 67.76V72H233.945V64H235.337V65.152C235.902 64.2453 236.766 63.792 237.929 63.792ZM249.6 64H250.992V72H249.6V70.624C248.907 71.68 247.899 72.208 246.576 72.208C245.456 72.208 244.502 71.8027 243.712 70.992C242.923 70.1707 242.528 69.1733 242.528 68C242.528 66.8267 242.923 65.8347 243.712 65.024C244.502 64.2027 245.456 63.792 246.576 63.792C247.899 63.792 248.907 64.32 249.6 65.376V64ZM246.752 70.864C247.563 70.864 248.24 70.592 248.784 70.048C249.328 69.4933 249.6 68.8107 249.6 68C249.6 67.1893 249.328 66.512 248.784 65.968C248.24 65.4133 247.563 65.136 246.752 65.136C245.952 65.136 245.28 65.4133 244.736 65.968C244.192 66.512 243.92 67.1893 243.92 68C243.92 68.8107 244.192 69.4933 244.736 70.048C245.28 70.592 245.952 70.864 246.752 70.864ZM253.101 72V60.32H254.493V72H253.101ZM258.697 70.352L257.657 74.24H256.457L257.097 70.352H258.697ZM269.08 63.792C270.2 63.792 271.154 64.2027 271.944 65.024C272.733 65.8347 273.128 66.8267 273.128 68C273.128 69.1733 272.733 70.1707 271.944 70.992C271.154 71.8027 270.2 72.208 269.08 72.208C267.757 72.208 266.749 71.68 266.056 70.624V72H264.664V60.8H266.056V65.376C266.749 64.32 267.757 63.792 269.08 63.792ZM268.904 70.864C269.704 70.864 270.376 70.592 270.92 70.048C271.464 69.4933 271.736 68.8107 271.736 68C271.736 67.1893 271.464 66.512 270.92 65.968C270.376 65.4133 269.704 65.136 268.904 65.136C268.093 65.136 267.416 65.4133 266.872 65.968C266.328 66.512 266.056 67.1893 266.056 68C266.056 68.8107 266.328 69.4933 266.872 70.048C267.416 70.592 268.093 70.864 268.904 70.864ZM280.309 64H281.701V72H280.309V70.848C279.743 71.7547 278.879 72.208 277.717 72.208C276.778 72.208 276.026 71.9147 275.461 71.328C274.895 70.7307 274.613 69.9253 274.613 68.912V64H276.005V68.832C276.005 69.4827 276.181 69.9893 276.533 70.352C276.885 70.704 277.37 70.88 277.989 70.88C278.682 70.88 279.242 70.6667 279.669 70.24C280.095 69.8027 280.309 69.136 280.309 68.24V64ZM285.004 66.16C285.004 66.4693 285.159 66.72 285.468 66.912C285.778 67.0933 286.151 67.2427 286.588 67.36C287.026 67.4667 287.463 67.5947 287.9 67.744C288.338 67.8827 288.711 68.128 289.02 68.48C289.33 68.8213 289.484 69.264 289.484 69.808C289.484 70.5333 289.202 71.1147 288.636 71.552C288.082 71.9893 287.367 72.208 286.492 72.208C285.714 72.208 285.047 72.0373 284.492 71.696C283.938 71.3547 283.543 70.9013 283.308 70.336L284.508 69.648C284.636 70.032 284.876 70.336 285.228 70.56C285.58 70.784 286.002 70.896 286.492 70.896C286.951 70.896 287.33 70.8107 287.628 70.64C287.927 70.4587 288.076 70.1813 288.076 69.808C288.076 69.4987 287.922 69.2533 287.612 69.072C287.303 68.88 286.93 68.7307 286.492 68.624C286.055 68.5067 285.618 68.3733 285.18 68.224C284.743 68.0747 284.37 67.8293 284.06 67.488C283.751 67.1467 283.596 66.7093 283.596 66.176C283.596 65.4827 283.863 64.912 284.396 64.464C284.94 64.016 285.618 63.792 286.428 63.792C287.079 63.792 287.655 63.9413 288.156 64.24C288.668 64.528 289.052 64.9333 289.308 65.456L288.14 66.112C287.852 65.4293 287.282 65.088 286.428 65.088C286.034 65.088 285.698 65.184 285.42 65.376C285.143 65.5573 285.004 65.8187 285.004 66.16ZM291.758 62.544C291.492 62.544 291.268 62.4533 291.086 62.272C290.905 62.0907 290.814 61.872 290.814 61.616C290.814 61.36 290.905 61.1413 291.086 60.96C291.268 60.768 291.492 60.672 291.758 60.672C292.014 60.672 292.233 60.768 292.414 60.96C292.596 61.1413 292.686 61.36 292.686 61.616C292.686 61.872 292.596 62.0907 292.414 62.272C292.233 62.4533 292.014 62.544 291.758 62.544ZM291.054 72V64H292.446V72H291.054ZM298.554 63.792C299.493 63.792 300.245 64.0907 300.81 64.688C301.375 65.2747 301.658 66.0747 301.658 67.088V72H300.266V67.168C300.266 66.5173 300.09 66.016 299.738 65.664C299.386 65.3013 298.901 65.12 298.282 65.12C297.589 65.12 297.029 65.3387 296.602 65.776C296.175 66.2027 295.962 66.864 295.962 67.76V72H294.57V64H295.962V65.152C296.527 64.2453 297.391 63.792 298.554 63.792ZM304.577 68.64C304.716 69.3547 305.041 69.9093 305.553 70.304C306.076 70.6987 306.716 70.896 307.473 70.896C308.529 70.896 309.297 70.5067 309.777 69.728L310.961 70.4C310.183 71.6053 309.009 72.208 307.441 72.208C306.172 72.208 305.137 71.8133 304.337 71.024C303.548 70.224 303.153 69.216 303.153 68C303.153 66.7947 303.543 65.792 304.321 64.992C305.1 64.192 306.108 63.792 307.345 63.792C308.519 63.792 309.473 64.208 310.209 65.04C310.956 65.8613 311.329 66.8533 311.329 68.016C311.329 68.2187 311.313 68.4267 311.281 68.64H304.577ZM307.345 65.104C306.599 65.104 305.98 65.3173 305.489 65.744C304.999 66.16 304.695 66.72 304.577 67.424H309.921C309.804 66.6667 309.505 66.0907 309.025 65.696C308.545 65.3013 307.985 65.104 307.345 65.104ZM313.817 66.16C313.817 66.4693 313.972 66.72 314.281 66.912C314.59 67.0933 314.964 67.2427 315.401 67.36C315.838 67.4667 316.276 67.5947 316.713 67.744C317.15 67.8827 317.524 68.128 317.833 68.48C318.142 68.8213 318.297 69.264 318.297 69.808C318.297 70.5333 318.014 71.1147 317.449 71.552C316.894 71.9893 316.18 72.208 315.305 72.208C314.526 72.208 313.86 72.0373 313.305 71.696C312.75 71.3547 312.356 70.9013 312.121 70.336L313.321 69.648C313.449 70.032 313.689 70.336 314.041 70.56C314.393 70.784 314.814 70.896 315.305 70.896C315.764 70.896 316.142 70.8107 316.441 70.64C316.74 70.4587 316.889 70.1813 316.889 69.808C316.889 69.4987 316.734 69.2533 316.425 69.072C316.116 68.88 315.742 68.7307 315.305 68.624C314.868 68.5067 314.43 68.3733 313.993 68.224C313.556 68.0747 313.182 67.8293 312.873 67.488C312.564 67.1467 312.409 66.7093 312.409 66.176C312.409 65.4827 312.676 64.912 313.209 64.464C313.753 64.016 314.43 63.792 315.241 63.792C315.892 63.792 316.468 63.9413 316.969 64.24C317.481 64.528 317.865 64.9333 318.121 65.456L316.953 66.112C316.665 65.4293 316.094 65.088 315.241 65.088C314.846 65.088 314.51 65.184 314.233 65.376C313.956 65.5573 313.817 65.8187 313.817 66.16ZM320.645 66.16C320.645 66.4693 320.8 66.72 321.109 66.912C321.418 67.0933 321.792 67.2427 322.229 67.36C322.666 67.4667 323.104 67.5947 323.541 67.744C323.978 67.8827 324.352 68.128 324.661 68.48C324.97 68.8213 325.125 69.264 325.125 69.808C325.125 70.5333 324.842 71.1147 324.277 71.552C323.722 71.9893 323.008 72.208 322.133 72.208C321.354 72.208 320.688 72.0373 320.133 71.696C319.578 71.3547 319.184 70.9013 318.949 70.336L320.149 69.648C320.277 70.032 320.517 70.336 320.869 70.56C321.221 70.784 321.642 70.896 322.133 70.896C322.592 70.896 322.97 70.8107 323.269 70.64C323.568 70.4587 323.717 70.1813 323.717 69.808C323.717 69.4987 323.562 69.2533 323.253 69.072C322.944 68.88 322.57 68.7307 322.133 68.624C321.696 68.5067 321.258 68.3733 320.821 68.224C320.384 68.0747 320.01 67.8293 319.701 67.488C319.392 67.1467 319.237 66.7093 319.237 66.176C319.237 65.4827 319.504 64.912 320.037 64.464C320.581 64.016 321.258 63.792 322.069 63.792C322.72 63.792 323.296 63.9413 323.797 64.24C324.309 64.528 324.693 64.9333 324.949 65.456L323.781 66.112C323.493 65.4293 322.922 65.088 322.069 65.088C321.674 65.088 321.338 65.184 321.061 65.376C320.784 65.5573 320.645 65.8187 320.645 66.16ZM328.681 70.352L327.641 74.24H326.441L327.081 70.352H328.681ZM335.624 68.64C335.763 69.3547 336.088 69.9093 336.6 70.304C337.123 70.6987 337.763 70.896 338.52 70.896C339.576 70.896 340.344 70.5067 340.824 69.728L342.008 70.4C341.23 71.6053 340.056 72.208 338.488 72.208C337.219 72.208 336.184 71.8133 335.384 71.024C334.595 70.224 334.2 69.216 334.2 68C334.2 66.7947 334.59 65.792 335.368 64.992C336.147 64.192 337.155 63.792 338.392 63.792C339.566 63.792 340.52 64.208 341.256 65.04C342.003 65.8613 342.376 66.8533 342.376 68.016C342.376 68.2187 342.36 68.4267 342.328 68.64H335.624ZM338.392 65.104C337.646 65.104 337.027 65.3173 336.536 65.744C336.046 66.16 335.742 66.72 335.624 67.424H340.968C340.851 66.6667 340.552 66.0907 340.072 65.696C339.592 65.3013 339.032 65.104 338.392 65.104ZM349.264 64H350.768L347.568 72H345.936L342.736 64H344.24L346.752 70.512L349.264 64ZM352.609 68.64C352.747 69.3547 353.073 69.9093 353.585 70.304C354.107 70.6987 354.747 70.896 355.505 70.896C356.561 70.896 357.329 70.5067 357.809 69.728L358.993 70.4C358.214 71.6053 357.041 72.208 355.473 72.208C354.203 72.208 353.169 71.8133 352.369 71.024C351.579 70.224 351.185 69.216 351.185 68C351.185 66.7947 351.574 65.792 352.353 64.992C353.131 64.192 354.139 63.792 355.377 63.792C356.55 63.792 357.505 64.208 358.241 65.04C358.987 65.8613 359.361 66.8533 359.361 68.016C359.361 68.2187 359.345 68.4267 359.313 68.64H352.609ZM355.377 65.104C354.63 65.104 354.011 65.3173 353.521 65.744C353.03 66.16 352.726 66.72 352.609 67.424H357.953C357.835 66.6667 357.537 66.0907 357.057 65.696C356.577 65.3013 356.017 65.104 355.377 65.104ZM364.945 63.792C365.883 63.792 366.635 64.0907 367.201 64.688C367.766 65.2747 368.049 66.0747 368.049 67.088V72H366.657V67.168C366.657 66.5173 366.481 66.016 366.129 65.664C365.777 65.3013 365.291 65.12 364.673 65.12C363.979 65.12 363.419 65.3387 362.993 65.776C362.566 66.2027 362.353 66.864 362.353 67.76V72H360.961V64H362.353V65.152C362.918 64.2453 363.782 63.792 364.945 63.792ZM374.344 65.344H372.216V69.68C372.216 70.0747 372.291 70.3573 372.44 70.528C372.6 70.688 372.84 70.7733 373.16 70.784C373.48 70.784 373.875 70.7733 374.344 70.752V72C373.128 72.16 372.237 72.064 371.672 71.712C371.107 71.3493 370.824 70.672 370.824 69.68V65.344H369.24V64H370.824V62.176L372.216 61.76V64H374.344V65.344ZM378.119 70.352L377.079 74.24H375.879L376.519 70.352H378.119ZM385.286 66.16C385.286 66.4693 385.44 66.72 385.75 66.912C386.059 67.0933 386.432 67.2427 386.87 67.36C387.307 67.4667 387.744 67.5947 388.182 67.744C388.619 67.8827 388.992 68.128 389.302 68.48C389.611 68.8213 389.766 69.264 389.766 69.808C389.766 70.5333 389.483 71.1147 388.918 71.552C388.363 71.9893 387.648 72.208 386.774 72.208C385.995 72.208 385.328 72.0373 384.774 71.696C384.219 71.3547 383.824 70.9013 383.59 70.336L384.79 69.648C384.918 70.032 385.158 70.336 385.51 70.56C385.862 70.784 386.283 70.896 386.774 70.896C387.232 70.896 387.611 70.8107 387.91 70.64C388.208 70.4587 388.358 70.1813 388.358 69.808C388.358 69.4987 388.203 69.2533 387.894 69.072C387.584 68.88 387.211 68.7307 386.774 68.624C386.336 68.5067 385.899 68.3733 385.462 68.224C385.024 68.0747 384.651 67.8293 384.342 67.488C384.032 67.1467 383.878 66.7093 383.878 66.176C383.878 65.4827 384.144 64.912 384.678 64.464C385.222 64.016 385.899 63.792 386.71 63.792C387.36 63.792 387.936 63.9413 388.438 64.24C388.95 64.528 389.334 64.9333 389.59 65.456L388.422 66.112C388.134 65.4293 387.563 65.088 386.71 65.088C386.315 65.088 385.979 65.184 385.702 65.376C385.424 65.5573 385.286 65.8187 385.286 66.16ZM397.947 70.992C397.126 71.8027 396.128 72.208 394.955 72.208C393.782 72.208 392.784 71.8027 391.963 70.992C391.152 70.1813 390.747 69.184 390.747 68C390.747 66.816 391.152 65.8187 391.963 65.008C392.784 64.1973 393.782 63.792 394.955 63.792C396.128 63.792 397.126 64.1973 397.947 65.008C398.768 65.8187 399.179 66.816 399.179 68C399.179 69.184 398.768 70.1813 397.947 70.992ZM394.955 70.848C395.755 70.848 396.427 70.576 396.971 70.032C397.515 69.488 397.787 68.8107 397.787 68C397.787 67.1893 397.515 66.512 396.971 65.968C396.427 65.424 395.755 65.152 394.955 65.152C394.166 65.152 393.499 65.424 392.955 65.968C392.411 66.512 392.139 67.1893 392.139 68C392.139 68.8107 392.411 69.488 392.955 70.032C393.499 70.576 394.166 70.848 394.955 70.848ZM404.58 72.208C403.375 72.208 402.372 71.808 401.572 71.008C400.772 70.1973 400.372 69.1947 400.372 68C400.372 66.8053 400.772 65.808 401.572 65.008C402.372 64.1973 403.375 63.792 404.58 63.792C405.369 63.792 406.079 63.984 406.708 64.368C407.337 64.7413 407.807 65.248 408.116 65.888L406.948 66.56C406.745 66.1333 406.431 65.792 406.004 65.536C405.588 65.28 405.113 65.152 404.58 65.152C403.78 65.152 403.108 65.424 402.564 65.968C402.031 66.512 401.764 67.1893 401.764 68C401.764 68.8 402.031 69.472 402.564 70.016C403.108 70.56 403.78 70.832 404.58 70.832C405.113 70.832 405.593 70.7093 406.02 70.464C406.447 70.208 406.772 69.8667 406.996 69.44L408.18 70.128C407.839 70.7573 407.348 71.264 406.708 71.648C406.068 72.0213 405.359 72.208 404.58 72.208ZM410.258 62.544C409.992 62.544 409.768 62.4533 409.586 62.272C409.405 62.0907 409.314 61.872 409.314 61.616C409.314 61.36 409.405 61.1413 409.586 60.96C409.768 60.768 409.992 60.672 410.258 60.672C410.514 60.672 410.733 60.768 410.914 60.96C411.096 61.1413 411.186 61.36 411.186 61.616C411.186 61.872 411.096 62.0907 410.914 62.272C410.733 62.4533 410.514 62.544 410.258 62.544ZM409.554 72V64H410.946V72H409.554ZM419.694 64H421.086V72H419.694V70.624C419.001 71.68 417.993 72.208 416.67 72.208C415.55 72.208 414.595 71.8027 413.806 70.992C413.017 70.1707 412.622 69.1733 412.622 68C412.622 66.8267 413.017 65.8347 413.806 65.024C414.595 64.2027 415.55 63.792 416.67 63.792C417.993 63.792 419.001 64.32 419.694 65.376V64ZM416.846 70.864C417.657 70.864 418.334 70.592 418.878 70.048C419.422 69.4933 419.694 68.8107 419.694 68C419.694 67.1893 419.422 66.512 418.878 65.968C418.334 65.4133 417.657 65.136 416.846 65.136C416.046 65.136 415.374 65.4133 414.83 65.968C414.286 66.512 414.014 67.1893 414.014 68C414.014 68.8107 414.286 69.4933 414.83 70.048C415.374 70.592 416.046 70.864 416.846 70.864ZM423.195 72V60.32H424.587V72H423.195ZM427.895 66.16C427.895 66.4693 428.05 66.72 428.359 66.912C428.668 67.0933 429.042 67.2427 429.479 67.36C429.916 67.4667 430.354 67.5947 430.791 67.744C431.228 67.8827 431.602 68.128 431.911 68.48C432.22 68.8213 432.375 69.264 432.375 69.808C432.375 70.5333 432.092 71.1147 431.527 71.552C430.972 71.9893 430.258 72.208 429.383 72.208C428.604 72.208 427.938 72.0373 427.383 71.696C426.828 71.3547 426.434 70.9013 426.199 70.336L427.399 69.648C427.527 70.032 427.767 70.336 428.119 70.56C428.471 70.784 428.892 70.896 429.383 70.896C429.842 70.896 430.22 70.8107 430.519 70.64C430.818 70.4587 430.967 70.1813 430.967 69.808C430.967 69.4987 430.812 69.2533 430.503 69.072C430.194 68.88 429.82 68.7307 429.383 68.624C428.946 68.5067 428.508 68.3733 428.071 68.224C427.634 68.0747 427.26 67.8293 426.951 67.488C426.642 67.1467 426.487 66.7093 426.487 66.176C426.487 65.4827 426.754 64.912 427.287 64.464C427.831 64.016 428.508 63.792 429.319 63.792C429.97 63.792 430.546 63.9413 431.047 64.24C431.559 64.528 431.943 64.9333 432.199 65.456L431.031 66.112C430.743 65.4293 430.172 65.088 429.319 65.088C428.924 65.088 428.588 65.184 428.311 65.376C428.034 65.5573 427.895 65.8187 427.895 66.16ZM442.007 63.792C442.946 63.792 443.698 64.0907 444.263 64.688C444.829 65.2747 445.111 66.0747 445.111 67.088V72H443.719V67.168C443.719 66.5173 443.543 66.016 443.191 65.664C442.839 65.3013 442.354 65.12 441.735 65.12C441.042 65.12 440.482 65.3387 440.055 65.776C439.629 66.2027 439.415 66.864 439.415 67.76V72H438.023V64H439.415V65.152C439.981 64.2453 440.845 63.792 442.007 63.792ZM448.03 68.64C448.169 69.3547 448.494 69.9093 449.006 70.304C449.529 70.6987 450.169 70.896 450.926 70.896C451.982 70.896 452.75 70.5067 453.23 69.728L454.414 70.4C453.636 71.6053 452.462 72.208 450.894 72.208C449.625 72.208 448.59 71.8133 447.79 71.024C447.001 70.224 446.606 69.216 446.606 68C446.606 66.7947 446.996 65.792 447.774 64.992C448.553 64.192 449.561 63.792 450.798 63.792C451.972 63.792 452.926 64.208 453.662 65.04C454.409 65.8613 454.782 66.8533 454.782 68.016C454.782 68.2187 454.766 68.4267 454.734 68.64H448.03ZM450.798 65.104C450.052 65.104 449.433 65.3173 448.942 65.744C448.452 66.16 448.148 66.72 448.03 67.424H453.374C453.257 66.6667 452.958 66.0907 452.478 65.696C451.998 65.3013 451.438 65.104 450.798 65.104ZM457.343 68.64C457.482 69.3547 457.807 69.9093 458.319 70.304C458.842 70.6987 459.482 70.896 460.239 70.896C461.295 70.896 462.063 70.5067 462.543 69.728L463.727 70.4C462.948 71.6053 461.775 72.208 460.207 72.208C458.938 72.208 457.903 71.8133 457.103 71.024C456.314 70.224 455.919 69.216 455.919 68C455.919 66.7947 456.308 65.792 457.087 64.992C457.866 64.192 458.874 63.792 460.111 63.792C461.284 63.792 462.239 64.208 462.975 65.04C463.722 65.8613 464.095 66.8533 464.095 68.016C464.095 68.2187 464.079 68.4267 464.047 68.64H457.343ZM460.111 65.104C459.364 65.104 458.746 65.3173 458.255 65.744C457.764 66.16 457.46 66.72 457.343 67.424H462.687C462.57 66.6667 462.271 66.0907 461.791 65.696C461.311 65.3013 460.751 65.104 460.111 65.104ZM472.303 60.8H473.695V72H472.303V70.624C471.61 71.68 470.602 72.208 469.279 72.208C468.159 72.208 467.205 71.8027 466.415 70.992C465.626 70.1707 465.231 69.1733 465.231 68C465.231 66.8267 465.626 65.8347 466.415 65.024C467.205 64.2027 468.159 63.792 469.279 63.792C470.602 63.792 471.61 64.32 472.303 65.376V60.8ZM469.455 70.864C470.266 70.864 470.943 70.592 471.487 70.048C472.031 69.4933 472.303 68.8107 472.303 68C472.303 67.1893 472.031 66.512 471.487 65.968C470.943 65.4133 470.266 65.136 469.455 65.136C468.655 65.136 467.983 65.4133 467.439 65.968C466.895 66.512 466.623 67.1893 466.623 68C466.623 68.8107 466.895 69.4933 467.439 70.048C467.983 70.592 468.655 70.864 469.455 70.864ZM476.989 66.16C476.989 66.4693 477.143 66.72 477.453 66.912C477.762 67.0933 478.135 67.2427 478.573 67.36C479.01 67.4667 479.447 67.5947 479.885 67.744C480.322 67.8827 480.695 68.128 481.005 68.48C481.314 68.8213 481.469 69.264 481.469 69.808C481.469 70.5333 481.186 71.1147 480.621 71.552C480.066 71.9893 479.351 72.208 478.477 72.208C477.698 72.208 477.031 72.0373 476.477 71.696C475.922 71.3547 475.527 70.9013 475.293 70.336L476.493 69.648C476.621 70.032 476.861 70.336 477.213 70.56C477.565 70.784 477.986 70.896 478.477 70.896C478.935 70.896 479.314 70.8107 479.613 70.64C479.911 70.4587 480.061 70.1813 480.061 69.808C480.061 69.4987 479.906 69.2533 479.597 69.072C479.287 68.88 478.914 68.7307 478.477 68.624C478.039 68.5067 477.602 68.3733 477.165 68.224C476.727 68.0747 476.354 67.8293 476.045 67.488C475.735 67.1467 475.581 66.7093 475.581 66.176C475.581 65.4827 475.847 64.912 476.381 64.464C476.925 64.016 477.602 63.792 478.413 63.792C479.063 63.792 479.639 63.9413 480.141 64.24C480.653 64.528 481.037 64.9333 481.293 65.456L480.125 66.112C479.837 65.4293 479.266 65.088 478.413 65.088C478.018 65.088 477.682 65.184 477.405 65.376C477.127 65.5573 476.989 65.8187 476.989 66.16ZM485.025 70.352L483.985 74.24H482.785L483.425 70.352H485.025ZM496.576 64H498.064L494.8 72.496C494.459 73.4027 493.979 74.0907 493.36 74.56C492.752 75.04 492.048 75.2533 491.248 75.2V73.904C492.229 73.9787 492.949 73.4347 493.408 72.272L493.552 71.968L490.064 64H491.552L494.272 70.272L496.576 64ZM505.666 70.992C504.844 71.8027 503.847 72.208 502.674 72.208C501.5 72.208 500.503 71.8027 499.682 70.992C498.871 70.1813 498.466 69.184 498.466 68C498.466 66.816 498.871 65.8187 499.682 65.008C500.503 64.1973 501.5 63.792 502.674 63.792C503.847 63.792 504.844 64.1973 505.666 65.008C506.487 65.8187 506.898 66.816 506.898 68C506.898 69.184 506.487 70.1813 505.666 70.992ZM502.674 70.848C503.474 70.848 504.146 70.576 504.69 70.032C505.234 69.488 505.506 68.8107 505.506 68C505.506 67.1893 505.234 66.512 504.69 65.968C504.146 65.424 503.474 65.152 502.674 65.152C501.884 65.152 501.218 65.424 500.674 65.968C500.13 66.512 499.858 67.1893 499.858 68C499.858 68.8107 500.13 69.488 500.674 70.032C501.218 70.576 501.884 70.848 502.674 70.848ZM514.059 64H515.451V72H514.059V70.848C513.493 71.7547 512.629 72.208 511.467 72.208C510.528 72.208 509.776 71.9147 509.211 71.328C508.645 70.7307 508.363 69.9253 508.363 68.912V64H509.755V68.832C509.755 69.4827 509.931 69.9893 510.283 70.352C510.635 70.704 511.12 70.88 511.739 70.88C512.432 70.88 512.992 70.6667 513.419 70.24C513.845 69.8027 514.059 69.136 514.059 68.24V64ZM525.33 72.208C524.125 72.208 523.122 71.808 522.322 71.008C521.522 70.1973 521.122 69.1947 521.122 68C521.122 66.8053 521.522 65.808 522.322 65.008C523.122 64.1973 524.125 63.792 525.33 63.792C526.119 63.792 526.829 63.984 527.458 64.368C528.087 64.7413 528.557 65.248 528.866 65.888L527.698 66.56C527.495 66.1333 527.181 65.792 526.754 65.536C526.338 65.28 525.863 65.152 525.33 65.152C524.53 65.152 523.858 65.424 523.314 65.968C522.781 66.512 522.514 67.1893 522.514 68C522.514 68.8 522.781 69.472 523.314 70.016C523.858 70.56 524.53 70.832 525.33 70.832C525.863 70.832 526.343 70.7093 526.77 70.464C527.197 70.208 527.522 69.8667 527.746 69.44L528.93 70.128C528.589 70.7573 528.098 71.264 527.458 71.648C526.818 72.0213 526.109 72.208 525.33 72.208ZM536.819 64H538.211V72H536.819V70.624C536.126 71.68 535.118 72.208 533.795 72.208C532.675 72.208 531.72 71.8027 530.931 70.992C530.142 70.1707 529.747 69.1733 529.747 68C529.747 66.8267 530.142 65.8347 530.931 65.024C531.72 64.2027 532.675 63.792 533.795 63.792C535.118 63.792 536.126 64.32 536.819 65.376V64ZM533.971 70.864C534.782 70.864 535.459 70.592 536.003 70.048C536.547 69.4933 536.819 68.8107 536.819 68C536.819 67.1893 536.547 66.512 536.003 65.968C535.459 65.4133 534.782 65.136 533.971 65.136C533.171 65.136 532.499 65.4133 531.955 65.968C531.411 66.512 531.139 67.1893 531.139 68C531.139 68.8107 531.411 69.4933 531.955 70.048C532.499 70.592 533.171 70.864 533.971 70.864ZM544.304 63.792C545.243 63.792 545.995 64.0907 546.56 64.688C547.125 65.2747 547.408 66.0747 547.408 67.088V72H546.016V67.168C546.016 66.5173 545.84 66.016 545.488 65.664C545.136 65.3013 544.651 65.12 544.032 65.12C543.339 65.12 542.779 65.3387 542.352 65.776C541.925 66.2027 541.712 66.864 541.712 67.76V72H540.32V64H541.712V65.152C542.277 64.2453 543.141 63.792 544.304 63.792ZM557.767 63.792C558.887 63.792 559.842 64.2027 560.631 65.024C561.421 65.8347 561.815 66.8267 561.815 68C561.815 69.1733 561.421 70.1707 560.631 70.992C559.842 71.8027 558.887 72.208 557.767 72.208C556.445 72.208 555.437 71.68 554.743 70.624V72H553.351V60.8H554.743V65.376C555.437 64.32 556.445 63.792 557.767 63.792ZM557.591 70.864C558.391 70.864 559.063 70.592 559.607 70.048C560.151 69.4933 560.423 68.8107 560.423 68C560.423 67.1893 560.151 66.512 559.607 65.968C559.063 65.4133 558.391 65.136 557.591 65.136C556.781 65.136 556.103 65.4133 555.559 65.968C555.015 66.512 554.743 67.1893 554.743 68C554.743 68.8107 555.015 69.4933 555.559 70.048C556.103 70.592 556.781 70.864 557.591 70.864ZM564.452 68.64C564.591 69.3547 564.916 69.9093 565.428 70.304C565.951 70.6987 566.591 70.896 567.348 70.896C568.404 70.896 569.172 70.5067 569.652 69.728L570.836 70.4C570.058 71.6053 568.884 72.208 567.316 72.208C566.047 72.208 565.012 71.8133 564.212 71.024C563.423 70.224 563.028 69.216 563.028 68C563.028 66.7947 563.418 65.792 564.196 64.992C564.975 64.192 565.983 63.792 567.22 63.792C568.394 63.792 569.348 64.208 570.084 65.04C570.831 65.8613 571.204 66.8533 571.204 68.016C571.204 68.2187 571.188 68.4267 571.156 68.64H564.452ZM567.22 65.104C566.474 65.104 565.855 65.3173 565.364 65.744C564.874 66.16 564.57 66.72 564.452 67.424H569.796C569.679 66.6667 569.38 66.0907 568.9 65.696C568.42 65.3013 567.86 65.104 567.22 65.104ZM129.47 89.344C129.929 88.352 130.761 87.856 131.966 87.856V89.312C131.283 89.28 130.697 89.4613 130.206 89.856C129.715 90.2507 129.47 90.8853 129.47 91.76V96H128.078V88H129.47V89.344ZM133.866 92.64C134.005 93.3547 134.33 93.9093 134.842 94.304C135.365 94.6987 136.005 94.896 136.762 94.896C137.818 94.896 138.586 94.5067 139.066 93.728L140.25 94.4C139.472 95.6053 138.298 96.208 136.73 96.208C135.461 96.208 134.426 95.8133 133.626 95.024C132.837 94.224 132.442 93.216 132.442 92C132.442 90.7947 132.832 89.792 133.61 88.992C134.389 88.192 135.397 87.792 136.634 87.792C137.808 87.792 138.762 88.208 139.498 89.04C140.245 89.8613 140.618 90.8533 140.618 92.016C140.618 92.2187 140.602 92.4267 140.57 92.64H133.866ZM136.634 89.104C135.888 89.104 135.269 89.3173 134.778 89.744C134.288 90.16 133.984 90.72 133.866 91.424H139.21C139.093 90.6667 138.794 90.0907 138.314 89.696C137.834 89.3013 137.274 89.104 136.634 89.104ZM143.106 90.16C143.106 90.4693 143.261 90.72 143.57 90.912C143.879 91.0933 144.253 91.2427 144.69 91.36C145.127 91.4667 145.565 91.5947 146.002 91.744C146.439 91.8827 146.813 92.128 147.122 92.48C147.431 92.8213 147.586 93.264 147.586 93.808C147.586 94.5333 147.303 95.1147 146.738 95.552C146.183 95.9893 145.469 96.208 144.594 96.208C143.815 96.208 143.149 96.0373 142.594 95.696C142.039 95.3547 141.645 94.9013 141.41 94.336L142.61 93.648C142.738 94.032 142.978 94.336 143.33 94.56C143.682 94.784 144.103 94.896 144.594 94.896C145.053 94.896 145.431 94.8107 145.73 94.64C146.029 94.4587 146.178 94.1813 146.178 93.808C146.178 93.4987 146.023 93.2533 145.714 93.072C145.405 92.88 145.031 92.7307 144.594 92.624C144.157 92.5067 143.719 92.3733 143.282 92.224C142.845 92.0747 142.471 91.8293 142.162 91.488C141.853 91.1467 141.698 90.7093 141.698 90.176C141.698 89.4827 141.965 88.912 142.498 88.464C143.042 88.016 143.719 87.792 144.53 87.792C145.181 87.792 145.757 87.9413 146.258 88.24C146.77 88.528 147.154 88.9333 147.41 89.456L146.242 90.112C145.954 89.4293 145.383 89.088 144.53 89.088C144.135 89.088 143.799 89.184 143.522 89.376C143.245 89.5573 143.106 89.8187 143.106 90.16ZM153.274 89.344H151.146V93.68C151.146 94.0747 151.22 94.3573 151.37 94.528C151.53 94.688 151.77 94.7733 152.09 94.784C152.41 94.784 152.804 94.7733 153.274 94.752V96C152.058 96.16 151.167 96.064 150.602 95.712C150.036 95.3493 149.754 94.672 149.754 93.68V89.344H148.17V88H149.754V86.176L151.146 85.76V88H153.274V89.344ZM165.593 88H166.985V96H165.593V94.624C164.899 95.68 163.891 96.208 162.569 96.208C161.449 96.208 160.494 95.8027 159.705 94.992C158.915 94.1707 158.521 93.1733 158.521 92C158.521 90.8267 158.915 89.8347 159.705 89.024C160.494 88.2027 161.449 87.792 162.569 87.792C163.891 87.792 164.899 88.32 165.593 89.376V88ZM162.745 94.864C163.555 94.864 164.233 94.592 164.777 94.048C165.321 93.4933 165.593 92.8107 165.593 92C165.593 91.1893 165.321 90.512 164.777 89.968C164.233 89.4133 163.555 89.136 162.745 89.136C161.945 89.136 161.273 89.4133 160.729 89.968C160.185 90.512 159.913 91.1893 159.913 92C159.913 92.8107 160.185 93.4933 160.729 94.048C161.273 94.592 161.945 94.864 162.745 94.864ZM170.278 90.16C170.278 90.4693 170.433 90.72 170.742 90.912C171.051 91.0933 171.425 91.2427 171.862 91.36C172.299 91.4667 172.737 91.5947 173.174 91.744C173.611 91.8827 173.985 92.128 174.294 92.48C174.603 92.8213 174.758 93.264 174.758 93.808C174.758 94.5333 174.475 95.1147 173.91 95.552C173.355 95.9893 172.641 96.208 171.766 96.208C170.987 96.208 170.321 96.0373 169.766 95.696C169.211 95.3547 168.817 94.9013 168.582 94.336L169.782 93.648C169.91 94.032 170.15 94.336 170.502 94.56C170.854 94.784 171.275 94.896 171.766 94.896C172.225 94.896 172.603 94.8107 172.902 94.64C173.201 94.4587 173.35 94.1813 173.35 93.808C173.35 93.4987 173.195 93.2533 172.886 93.072C172.577 92.88 172.203 92.7307 171.766 92.624C171.329 92.5067 170.891 92.3733 170.454 92.224C170.017 92.0747 169.643 91.8293 169.334 91.488C169.025 91.1467 168.87 90.7093 168.87 90.176C168.87 89.4827 169.137 88.912 169.67 88.464C170.214 88.016 170.891 87.792 171.702 87.792C172.353 87.792 172.929 87.9413 173.43 88.24C173.942 88.528 174.326 88.9333 174.582 89.456L173.414 90.112C173.126 89.4293 172.555 89.088 171.702 89.088C171.307 89.088 170.971 89.184 170.694 89.376C170.417 89.5573 170.278 89.8187 170.278 90.16ZM177.106 90.16C177.106 90.4693 177.261 90.72 177.57 90.912C177.879 91.0933 178.253 91.2427 178.69 91.36C179.127 91.4667 179.565 91.5947 180.002 91.744C180.439 91.8827 180.813 92.128 181.122 92.48C181.431 92.8213 181.586 93.264 181.586 93.808C181.586 94.5333 181.303 95.1147 180.738 95.552C180.183 95.9893 179.469 96.208 178.594 96.208C177.815 96.208 177.149 96.0373 176.594 95.696C176.039 95.3547 175.645 94.9013 175.41 94.336L176.61 93.648C176.738 94.032 176.978 94.336 177.33 94.56C177.682 94.784 178.103 94.896 178.594 94.896C179.053 94.896 179.431 94.8107 179.73 94.64C180.029 94.4587 180.178 94.1813 180.178 93.808C180.178 93.4987 180.023 93.2533 179.714 93.072C179.405 92.88 179.031 92.7307 178.594 92.624C178.157 92.5067 177.719 92.3733 177.282 92.224C176.845 92.0747 176.471 91.8293 176.162 91.488C175.853 91.1467 175.698 90.7093 175.698 90.176C175.698 89.4827 175.965 88.912 176.498 88.464C177.042 88.016 177.719 87.792 178.53 87.792C179.181 87.792 179.757 87.9413 180.258 88.24C180.77 88.528 181.154 88.9333 181.41 89.456L180.242 90.112C179.954 89.4293 179.383 89.088 178.53 89.088C178.135 89.088 177.799 89.184 177.522 89.376C177.245 89.5573 177.106 89.8187 177.106 90.16ZM188.676 88H190.068V96H188.676V94.848C188.111 95.7547 187.247 96.208 186.084 96.208C185.145 96.208 184.393 95.9147 183.828 95.328C183.263 94.7307 182.98 93.9253 182.98 92.912V88H184.372V92.832C184.372 93.4827 184.548 93.9893 184.9 94.352C185.252 94.704 185.737 94.88 186.356 94.88C187.049 94.88 187.609 94.6667 188.036 94.24C188.463 93.8027 188.676 93.136 188.676 92.24V88ZM193.579 89.344C194.038 88.352 194.87 87.856 196.075 87.856V89.312C195.393 89.28 194.806 89.4613 194.315 89.856C193.825 90.2507 193.579 90.8853 193.579 91.76V96H192.187V88H193.579V89.344ZM197.976 92.64C198.114 93.3547 198.44 93.9093 198.952 94.304C199.474 94.6987 200.114 94.896 200.872 94.896C201.928 94.896 202.696 94.5067 203.176 93.728L204.36 94.4C203.581 95.6053 202.408 96.208 200.84 96.208C199.57 96.208 198.536 95.8133 197.736 95.024C196.946 94.224 196.552 93.216 196.552 92C196.552 90.7947 196.941 89.792 197.72 88.992C198.498 88.192 199.506 87.792 200.744 87.792C201.917 87.792 202.872 88.208 203.608 89.04C204.354 89.8613 204.728 90.8533 204.728 92.016C204.728 92.2187 204.712 92.4267 204.68 92.64H197.976ZM200.744 89.104C199.997 89.104 199.378 89.3173 198.888 89.744C198.397 90.16 198.093 90.72 197.976 91.424H203.32C203.202 90.6667 202.904 90.0907 202.424 89.696C201.944 89.3013 201.384 89.104 200.744 89.104ZM212.936 84.8H214.328V96H212.936V94.624C212.243 95.68 211.235 96.208 209.912 96.208C208.792 96.208 207.838 95.8027 207.048 94.992C206.259 94.1707 205.864 93.1733 205.864 92C205.864 90.8267 206.259 89.8347 207.048 89.024C207.838 88.2027 208.792 87.792 209.912 87.792C211.235 87.792 212.243 88.32 212.936 89.376V84.8ZM210.088 94.864C210.899 94.864 211.576 94.592 212.12 94.048C212.664 93.4933 212.936 92.8107 212.936 92C212.936 91.1893 212.664 90.512 212.12 89.968C211.576 89.4133 210.899 89.136 210.088 89.136C209.288 89.136 208.616 89.4133 208.072 89.968C207.528 90.512 207.256 91.1893 207.256 92C207.256 92.8107 207.528 93.4933 208.072 94.048C208.616 94.592 209.288 94.864 210.088 94.864ZM229.861 88H231.317L228.837 96H227.413L225.541 90.08L223.669 96H222.245L219.765 88H221.221L222.981 94.08L224.869 88H226.213L228.101 94.096L229.861 88ZM233.413 92.64C233.552 93.3547 233.877 93.9093 234.389 94.304C234.912 94.6987 235.552 94.896 236.309 94.896C237.365 94.896 238.133 94.5067 238.613 93.728L239.797 94.4C239.019 95.6053 237.845 96.208 236.277 96.208C235.008 96.208 233.973 95.8133 233.173 95.024C232.384 94.224 231.989 93.216 231.989 92C231.989 90.7947 232.379 89.792 233.157 88.992C233.936 88.192 234.944 87.792 236.181 87.792C237.355 87.792 238.309 88.208 239.045 89.04C239.792 89.8613 240.165 90.8533 240.165 92.016C240.165 92.2187 240.149 92.4267 240.117 92.64H233.413ZM236.181 89.104C235.435 89.104 234.816 89.3173 234.325 89.744C233.835 90.16 233.531 90.72 233.413 91.424H238.757C238.64 90.6667 238.341 90.0907 237.861 89.696C237.381 89.3013 236.821 89.104 236.181 89.104ZM249.749 87.792C250.688 87.792 251.44 88.0907 252.005 88.688C252.571 89.2747 252.853 90.0747 252.853 91.088V96H251.461V91.168C251.461 90.5173 251.285 90.016 250.933 89.664C250.581 89.3013 250.096 89.12 249.477 89.12C248.784 89.12 248.224 89.3387 247.797 89.776C247.371 90.2027 247.157 90.864 247.157 91.76V96H245.765V84.8H247.157V89.152C247.723 88.2453 248.587 87.792 249.749 87.792ZM261.421 88H262.813V96H261.421V94.624C260.727 95.68 259.719 96.208 258.397 96.208C257.277 96.208 256.322 95.8027 255.533 94.992C254.743 94.1707 254.349 93.1733 254.349 92C254.349 90.8267 254.743 89.8347 255.533 89.024C256.322 88.2027 257.277 87.792 258.397 87.792C259.719 87.792 260.727 88.32 261.421 89.376V88ZM258.573 94.864C259.383 94.864 260.061 94.592 260.605 94.048C261.149 93.4933 261.421 92.8107 261.421 92C261.421 91.1893 261.149 90.512 260.605 89.968C260.061 89.4133 259.383 89.136 258.573 89.136C257.773 89.136 257.101 89.4133 256.557 89.968C256.013 90.512 255.741 91.1893 255.741 92C255.741 92.8107 256.013 93.4933 256.557 94.048C257.101 94.592 257.773 94.864 258.573 94.864ZM270.522 88H272.026L268.826 96H267.194L263.994 88H265.498L268.01 94.512L270.522 88ZM273.866 92.64C274.005 93.3547 274.33 93.9093 274.842 94.304C275.365 94.6987 276.005 94.896 276.762 94.896C277.818 94.896 278.586 94.5067 279.066 93.728L280.25 94.4C279.472 95.6053 278.298 96.208 276.73 96.208C275.461 96.208 274.426 95.8133 273.626 95.024C272.837 94.224 272.442 93.216 272.442 92C272.442 90.7947 272.832 89.792 273.61 88.992C274.389 88.192 275.397 87.792 276.634 87.792C277.808 87.792 278.762 88.208 279.498 89.04C280.245 89.8613 280.618 90.8533 280.618 92.016C280.618 92.2187 280.602 92.4267 280.57 92.64H273.866ZM276.634 89.104C275.888 89.104 275.269 89.3173 274.778 89.744C274.288 90.16 273.984 90.72 273.866 91.424H279.21C279.093 90.6667 278.794 90.0907 278.314 89.696C277.834 89.3013 277.274 89.104 276.634 89.104ZM291.803 88H293.291L290.027 96.496C289.685 97.4027 289.205 98.0907 288.587 98.56C287.979 99.04 287.275 99.2533 286.475 99.2V97.904C287.456 97.9787 288.176 97.4347 288.635 96.272L288.779 95.968L285.291 88H286.779L289.499 94.272L291.803 88ZM300.892 94.992C300.071 95.8027 299.074 96.208 297.9 96.208C296.727 96.208 295.73 95.8027 294.908 94.992C294.098 94.1813 293.692 93.184 293.692 92C293.692 90.816 294.098 89.8187 294.908 89.008C295.73 88.1973 296.727 87.792 297.9 87.792C299.074 87.792 300.071 88.1973 300.892 89.008C301.714 89.8187 302.124 90.816 302.124 92C302.124 93.184 301.714 94.1813 300.892 94.992ZM297.9 94.848C298.7 94.848 299.372 94.576 299.916 94.032C300.46 93.488 300.732 92.8107 300.732 92C300.732 91.1893 300.46 90.512 299.916 89.968C299.372 89.424 298.7 89.152 297.9 89.152C297.111 89.152 296.444 89.424 295.9 89.968C295.356 90.512 295.084 91.1893 295.084 92C295.084 92.8107 295.356 93.488 295.9 94.032C296.444 94.576 297.111 94.848 297.9 94.848ZM309.285 88H310.677V96H309.285V94.848C308.72 95.7547 307.856 96.208 306.693 96.208C305.755 96.208 305.003 95.9147 304.437 95.328C303.872 94.7307 303.589 93.9253 303.589 92.912V88H304.981V92.832C304.981 93.4827 305.157 93.9893 305.509 94.352C305.861 94.704 306.347 94.88 306.965 94.88C307.659 94.88 308.219 94.6667 308.645 94.24C309.072 93.8027 309.285 93.136 309.285 92.24V88ZM317.501 86.544C317.234 86.544 317.01 86.4533 316.829 86.272C316.647 86.0907 316.557 85.872 316.557 85.616C316.557 85.36 316.647 85.1413 316.829 84.96C317.01 84.768 317.234 84.672 317.501 84.672C317.757 84.672 317.975 84.768 318.157 84.96C318.338 85.1413 318.429 85.36 318.429 85.616C318.429 85.872 318.338 86.0907 318.157 86.272C317.975 86.4533 317.757 86.544 317.501 86.544ZM316.797 96V88H318.189V96H316.797ZM324.296 87.792C325.235 87.792 325.987 88.0907 326.552 88.688C327.118 89.2747 327.4 90.0747 327.4 91.088V96H326.008V91.168C326.008 90.5173 325.832 90.016 325.48 89.664C325.128 89.3013 324.643 89.12 324.024 89.12C323.331 89.12 322.771 89.3387 322.344 89.776C321.918 90.2027 321.704 90.864 321.704 91.76V96H320.312V88H321.704V89.152C322.27 88.2453 323.134 87.792 324.296 87.792ZM341.984 87.792C342.88 87.792 343.605 88.0853 344.16 88.672C344.714 89.248 344.992 90.032 344.992 91.024V96H343.6V91.072C343.6 90.4533 343.44 89.9733 343.12 89.632C342.8 89.2907 342.373 89.12 341.84 89.12C341.242 89.12 340.762 89.3227 340.4 89.728C340.048 90.1227 339.872 90.7307 339.872 91.552V96H338.48V91.072C338.48 90.4533 338.325 89.9733 338.016 89.632C337.717 89.2907 337.306 89.12 336.784 89.12C336.197 89.12 335.706 89.3227 335.312 89.728C334.928 90.1333 334.736 90.7413 334.736 91.552V96H333.344V88H334.736V89.072C335.28 88.2187 336.074 87.792 337.12 87.792C338.197 87.792 338.981 88.2453 339.472 89.152C340.026 88.2453 340.864 87.792 341.984 87.792ZM347.626 86.544C347.359 86.544 347.135 86.4533 346.954 86.272C346.772 86.0907 346.682 85.872 346.682 85.616C346.682 85.36 346.772 85.1413 346.954 84.96C347.135 84.768 347.359 84.672 347.626 84.672C347.882 84.672 348.1 84.768 348.282 84.96C348.463 85.1413 348.554 85.36 348.554 85.616C348.554 85.872 348.463 86.0907 348.282 86.272C348.1 86.4533 347.882 86.544 347.626 86.544ZM346.922 96V88H348.314V96H346.922ZM354.421 87.792C355.36 87.792 356.112 88.0907 356.677 88.688C357.243 89.2747 357.525 90.0747 357.525 91.088V96H356.133V91.168C356.133 90.5173 355.957 90.016 355.605 89.664C355.253 89.3013 354.768 89.12 354.149 89.12C353.456 89.12 352.896 89.3387 352.469 89.776C352.043 90.2027 351.829 90.864 351.829 91.76V96H350.437V88H351.829V89.152C352.395 88.2453 353.259 87.792 354.421 87.792ZM366.093 84.8H367.485V96H366.093V94.624C365.399 95.68 364.391 96.208 363.069 96.208C361.949 96.208 360.994 95.8027 360.205 94.992C359.415 94.1707 359.021 93.1733 359.021 92C359.021 90.8267 359.415 89.8347 360.205 89.024C360.994 88.2027 361.949 87.792 363.069 87.792C364.391 87.792 365.399 88.32 366.093 89.376V84.8ZM363.245 94.864C364.055 94.864 364.733 94.592 365.277 94.048C365.821 93.4933 366.093 92.8107 366.093 92C366.093 91.1893 365.821 90.512 365.277 89.968C364.733 89.4133 364.055 89.136 363.245 89.136C362.445 89.136 361.773 89.4133 361.229 89.968C360.685 90.512 360.413 91.1893 360.413 92C360.413 92.8107 360.685 93.4933 361.229 94.048C361.773 94.592 362.445 94.864 363.245 94.864ZM374.298 86.544C374.031 86.544 373.807 86.4533 373.626 86.272C373.444 86.0907 373.354 85.872 373.354 85.616C373.354 85.36 373.444 85.1413 373.626 84.96C373.807 84.768 374.031 84.672 374.298 84.672C374.554 84.672 374.772 84.768 374.954 84.96C375.135 85.1413 375.226 85.36 375.226 85.616C375.226 85.872 375.135 86.0907 374.954 86.272C374.772 86.4533 374.554 86.544 374.298 86.544ZM373.594 96V88H374.986V96H373.594ZM381.093 87.792C382.032 87.792 382.784 88.0907 383.349 88.688C383.914 89.2747 384.197 90.0747 384.197 91.088V96H382.805V91.168C382.805 90.5173 382.629 90.016 382.277 89.664C381.925 89.3013 381.44 89.12 380.821 89.12C380.128 89.12 379.568 89.3387 379.141 89.776C378.714 90.2027 378.501 90.864 378.501 91.76V96H377.109V88H378.501V89.152C379.066 88.2453 379.93 87.792 381.093 87.792ZM396.892 94.992C396.071 95.8027 395.074 96.208 393.9 96.208C392.727 96.208 391.73 95.8027 390.908 94.992C390.098 94.1813 389.692 93.184 389.692 92C389.692 90.816 390.098 89.8187 390.908 89.008C391.73 88.1973 392.727 87.792 393.9 87.792C395.074 87.792 396.071 88.1973 396.892 89.008C397.714 89.8187 398.124 90.816 398.124 92C398.124 93.184 397.714 94.1813 396.892 94.992ZM393.9 94.848C394.7 94.848 395.372 94.576 395.916 94.032C396.46 93.488 396.732 92.8107 396.732 92C396.732 91.1893 396.46 90.512 395.916 89.968C395.372 89.424 394.7 89.152 393.9 89.152C393.111 89.152 392.444 89.424 391.9 89.968C391.356 90.512 391.084 91.1893 391.084 92C391.084 92.8107 391.356 93.488 391.9 94.032C392.444 94.576 393.111 94.848 393.9 94.848ZM405.285 88H406.677V96H405.285V94.848C404.72 95.7547 403.856 96.208 402.693 96.208C401.755 96.208 401.003 95.9147 400.437 95.328C399.872 94.7307 399.589 93.9253 399.589 92.912V88H400.981V92.832C400.981 93.4827 401.157 93.9893 401.509 94.352C401.861 94.704 402.347 94.88 402.965 94.88C403.659 94.88 404.219 94.6667 404.645 94.24C405.072 93.8027 405.285 93.136 405.285 92.24V88ZM410.189 89.344C410.647 88.352 411.479 87.856 412.685 87.856V89.312C412.002 89.28 411.415 89.4613 410.925 89.856C410.434 90.2507 410.189 90.8853 410.189 91.76V96H408.797V88H410.189V89.344ZM422.463 87.792C423.583 87.792 424.537 88.2027 425.327 89.024C426.116 89.8347 426.511 90.8267 426.511 92C426.511 93.1733 426.116 94.1707 425.327 94.992C424.537 95.8027 423.583 96.208 422.463 96.208C421.14 96.208 420.132 95.68 419.439 94.624V99.2H418.047V88H419.439V89.376C420.132 88.32 421.14 87.792 422.463 87.792ZM422.287 94.864C423.087 94.864 423.759 94.592 424.303 94.048C424.847 93.4933 425.119 92.8107 425.119 92C425.119 91.1893 424.847 90.512 424.303 89.968C423.759 89.4133 423.087 89.136 422.287 89.136C421.476 89.136 420.799 89.4133 420.255 89.968C419.711 90.512 419.439 91.1893 419.439 92C419.439 92.8107 419.711 93.4933 420.255 94.048C420.799 94.592 421.476 94.864 422.287 94.864ZM429.564 89.344C430.022 88.352 430.854 87.856 432.06 87.856V89.312C431.377 89.28 430.79 89.4613 430.3 89.856C429.809 90.2507 429.564 90.8853 429.564 91.76V96H428.172V88H429.564V89.344ZM434.126 86.544C433.859 86.544 433.635 86.4533 433.454 86.272C433.272 86.0907 433.182 85.872 433.182 85.616C433.182 85.36 433.272 85.1413 433.454 84.96C433.635 84.768 433.859 84.672 434.126 84.672C434.382 84.672 434.6 84.768 434.782 84.96C434.963 85.1413 435.054 85.36 435.054 85.616C435.054 85.872 434.963 86.0907 434.782 86.272C434.6 86.4533 434.382 86.544 434.126 86.544ZM433.422 96V88H434.814V96H433.422ZM440.697 96.208C439.492 96.208 438.489 95.808 437.689 95.008C436.889 94.1973 436.489 93.1947 436.489 92C436.489 90.8053 436.889 89.808 437.689 89.008C438.489 88.1973 439.492 87.792 440.697 87.792C441.487 87.792 442.196 87.984 442.825 88.368C443.455 88.7413 443.924 89.248 444.233 89.888L443.065 90.56C442.863 90.1333 442.548 89.792 442.121 89.536C441.705 89.28 441.231 89.152 440.697 89.152C439.897 89.152 439.225 89.424 438.681 89.968C438.148 90.512 437.881 91.1893 437.881 92C437.881 92.8 438.148 93.472 438.681 94.016C439.225 94.56 439.897 94.832 440.697 94.832C441.231 94.832 441.711 94.7093 442.137 94.464C442.564 94.208 442.889 93.8667 443.113 93.44L444.297 94.128C443.956 94.7573 443.465 95.264 442.825 95.648C442.185 96.0213 441.476 96.208 440.697 96.208ZM446.376 86.544C446.109 86.544 445.885 86.4533 445.704 86.272C445.522 86.0907 445.432 85.872 445.432 85.616C445.432 85.36 445.522 85.1413 445.704 84.96C445.885 84.768 446.109 84.672 446.376 84.672C446.632 84.672 446.85 84.768 447.032 84.96C447.213 85.1413 447.304 85.36 447.304 85.616C447.304 85.872 447.213 86.0907 447.032 86.272C446.85 86.4533 446.632 86.544 446.376 86.544ZM445.672 96V88H447.064V96H445.672ZM453.171 87.792C454.11 87.792 454.862 88.0907 455.427 88.688C455.993 89.2747 456.275 90.0747 456.275 91.088V96H454.883V91.168C454.883 90.5173 454.707 90.016 454.355 89.664C454.003 89.3013 453.518 89.12 452.899 89.12C452.206 89.12 451.646 89.3387 451.219 89.776C450.793 90.2027 450.579 90.864 450.579 91.76V96H449.187V88H450.579V89.152C451.145 88.2453 452.009 87.792 453.171 87.792ZM464.859 88H466.235V95.664C466.235 96.848 465.835 97.7653 465.035 98.416C464.235 99.0773 463.275 99.408 462.155 99.408C461.259 99.408 460.485 99.2373 459.835 98.896C459.184 98.5653 458.693 98.0853 458.363 97.456L459.579 96.768C460.016 97.664 460.885 98.112 462.187 98.112C463.019 98.112 463.669 97.8933 464.139 97.456C464.619 97.0187 464.859 96.4213 464.859 95.664V94.528C464.155 95.5947 463.152 96.128 461.851 96.128C460.709 96.128 459.744 95.7227 458.955 94.912C458.165 94.1013 457.771 93.1147 457.771 91.952C457.771 90.7893 458.165 89.808 458.955 89.008C459.744 88.1973 460.709 87.792 461.851 87.792C463.163 87.792 464.165 88.32 464.859 89.376V88ZM459.979 93.984C460.523 94.528 461.2 94.8 462.011 94.8C462.821 94.8 463.499 94.528 464.043 93.984C464.587 93.44 464.859 92.7627 464.859 91.952C464.859 91.152 464.587 90.48 464.043 89.936C463.499 89.392 462.821 89.12 462.011 89.12C461.2 89.12 460.523 89.392 459.979 89.936C459.435 90.48 459.163 91.152 459.163 91.952C459.163 92.7627 459.435 93.44 459.979 93.984ZM469.224 96.176C468.936 96.176 468.69 96.0747 468.488 95.872C468.285 95.6693 468.184 95.424 468.184 95.136C468.184 94.848 468.285 94.6027 468.488 94.4C468.69 94.1973 468.936 94.096 469.224 94.096C469.522 94.096 469.768 94.1973 469.96 94.4C470.162 94.6027 470.264 94.848 470.264 95.136C470.264 95.424 470.162 95.6693 469.96 95.872C469.768 96.0747 469.522 96.176 469.224 96.176Z" fill="#141414"/>
<defs>
<linearGradient id="paint0_linear_1_333" x1="3.05" y1="0" x2="3.05" y2="48" gradientUnits="userSpaceOnUse">
<stop stop-color="#112232"/>
<stop offset="1" stop-color="#4D6B88" stop-opacity="0"/>
</linearGradient>
</defs>
</svg>
